<svg width="170" height="52" viewBox="0 0 170 52" fill="none" xmlns="http://www.w3.org/2000/svg">
<path d="M31.8034 26.36C30.4114 26.36 29.1874 26.08 28.1314 25.52C27.0754 24.952 26.2514 24.156 25.6594 23.132C25.0674 22.108 24.7714 20.904 24.7714 19.52V8.744L28.0834 8.72V19.496C28.0834 20.064 28.1794 20.58 28.3714 21.044C28.5634 21.508 28.8274 21.908 29.1634 22.244C29.5074 22.58 29.9034 22.84 30.3514 23.024C30.8074 23.2 31.2914 23.288 31.8034 23.288C32.3314 23.288 32.8194 23.196 33.2674 23.012C33.7234 22.828 34.1194 22.568 34.4554 22.232C34.7914 21.896 35.0514 21.496 35.2354 21.032C35.4274 20.568 35.5234 20.056 35.5234 19.496V8.72H38.8354V19.52C38.8354 20.904 38.5394 22.108 37.9474 23.132C37.3554 24.156 36.5314 24.952 35.4754 25.52C34.4194 26.08 33.1954 26.36 31.8034 26.36ZM40.7455 26L46.5535 17.264L40.9135 8.72H44.9215L48.5935 14.48L52.2175 8.72H56.2495L50.6095 17.264L56.3935 26H52.3855L48.5935 20.048L44.7775 26H40.7455ZM58.3105 26V8.72H63.9025C64.0385 8.72 64.3185 8.724 64.7425 8.732C65.1665 8.74 65.5745 8.768 65.9665 8.816C67.3585 8.984 68.5385 9.468 69.5065 10.268C70.4745 11.068 71.2105 12.084 71.7145 13.316C72.2185 14.548 72.4705 15.896 72.4705 17.36C72.4705 18.824 72.2185 20.172 71.7145 21.404C71.2105 22.636 70.4745 23.652 69.5065 24.452C68.5385 25.252 67.3585 25.736 65.9665 25.904C65.5745 25.952 65.1665 25.98 64.7425 25.988C64.3185 25.996 64.0385 26 63.9025 26H58.3105ZM61.6225 22.928H63.9025C64.1185 22.928 64.4105 22.924 64.7785 22.916C65.1465 22.9 65.4785 22.864 65.7745 22.808C66.5265 22.656 67.1385 22.304 67.6105 21.752C68.0905 21.2 68.4425 20.536 68.6665 19.76C68.8985 18.984 69.0145 18.184 69.0145 17.36C69.0145 16.496 68.8945 15.676 68.6545 14.9C68.4225 14.124 68.0665 13.468 67.5865 12.932C67.1065 12.396 66.5025 12.056 65.7745 11.912C65.4785 11.848 65.1465 11.812 64.7785 11.804C64.4105 11.796 64.1185 11.792 63.9025 11.792H61.6225V22.928ZM75.3495 26V8.72H86.6295V11.768H78.6135V15.464H85.1895V18.512H78.6135V22.952H86.6295V26H75.3495ZM96.0338 26.36C94.7538 26.36 93.5978 26.136 92.5658 25.688C91.5418 25.232 90.6978 24.584 90.0338 23.744C89.3778 22.896 88.9618 21.888 88.7858 20.72L92.1938 20.216C92.4338 21.208 92.9298 21.972 93.6818 22.508C94.4338 23.044 95.2898 23.312 96.2498 23.312C96.7858 23.312 97.3058 23.228 97.8098 23.06C98.3138 22.892 98.7258 22.644 99.0458 22.316C99.3738 21.988 99.5378 21.584 99.5378 21.104C99.5378 20.928 99.5098 20.76 99.4538 20.6C99.4058 20.432 99.3218 20.276 99.2018 20.132C99.0818 19.988 98.9098 19.852 98.6858 19.724C98.4698 19.596 98.1938 19.48 97.8578 19.376L93.3698 18.056C93.0338 17.96 92.6418 17.824 92.1938 17.648C91.7538 17.472 91.3258 17.22 90.9098 16.892C90.4938 16.564 90.1458 16.132 89.8658 15.596C89.5938 15.052 89.4578 14.368 89.4578 13.544C89.4578 12.384 89.7498 11.42 90.3338 10.652C90.9178 9.884 91.6978 9.312 92.6738 8.936C93.6498 8.56 94.7298 8.376 95.9138 8.384C97.1058 8.4 98.1698 8.604 99.1058 8.996C100.042 9.388 100.826 9.96 101.458 10.712C102.09 11.456 102.546 12.368 102.826 13.448L99.2978 14.048C99.1698 13.488 98.9338 13.016 98.5898 12.632C98.2458 12.248 97.8338 11.956 97.3538 11.756C96.8818 11.556 96.3858 11.448 95.8658 11.432C95.3538 11.416 94.8698 11.488 94.4138 11.648C93.9658 11.8 93.5978 12.024 93.3098 12.32C93.0298 12.616 92.8898 12.968 92.8898 13.376C92.8898 13.752 93.0058 14.06 93.2378 14.3C93.4698 14.532 93.7618 14.72 94.1138 14.864C94.4658 15.008 94.8258 15.128 95.1938 15.224L98.1938 16.04C98.6418 16.16 99.1378 16.32 99.6818 16.52C100.226 16.712 100.746 16.984 101.242 17.336C101.746 17.68 102.158 18.136 102.478 18.704C102.806 19.272 102.97 19.992 102.97 20.864C102.97 21.792 102.774 22.604 102.382 23.3C101.998 23.988 101.478 24.56 100.822 25.016C100.166 25.464 99.4218 25.8 98.5898 26.024C97.7658 26.248 96.9138 26.36 96.0338 26.36ZM105.847 26V8.72H109.111V26H105.847ZM119.909 26.36C118.821 26.36 117.785 26.168 116.801 25.784C115.817 25.392 114.945 24.816 114.185 24.056C113.433 23.296 112.837 22.356 112.397 21.236C111.965 20.116 111.749 18.824 111.749 17.36C111.749 15.448 112.113 13.824 112.841 12.488C113.577 11.144 114.561 10.12 115.793 9.416C117.033 8.712 118.405 8.36 119.909 8.36C122.133 8.36 123.881 8.876 125.153 9.908C126.425 10.94 127.277 12.4 127.709 14.288L124.373 14.768C124.061 13.76 123.549 12.956 122.837 12.356C122.133 11.748 121.229 11.44 120.125 11.432C119.029 11.416 118.117 11.652 117.389 12.14C116.661 12.628 116.113 13.32 115.745 14.216C115.385 15.112 115.205 16.16 115.205 17.36C115.205 18.56 115.385 19.6 115.745 20.48C116.113 21.36 116.661 22.044 117.389 22.532C118.117 23.02 119.029 23.272 120.125 23.288C120.869 23.304 121.541 23.176 122.141 22.904C122.749 22.632 123.261 22.204 123.677 21.62C124.093 21.036 124.389 20.288 124.565 19.376H121.829V16.856H128.045C128.061 16.96 128.073 17.144 128.081 17.408C128.089 17.672 128.093 17.824 128.093 17.864C128.093 19.52 127.757 20.988 127.085 22.268C126.413 23.548 125.465 24.552 124.241 25.28C123.017 26 121.573 26.36 119.909 26.36ZM130.498 26V8.72H133.81L141.322 20.24V8.72H144.634V26H141.322L133.81 14.48V26H130.498Z" fill="white"/>
<path d="M26.2335 47.2905V37.2105H27.9415L31.2735 43.9025L34.6055 37.2105H36.3135V47.2905H34.5355V41.2705L31.6095 47.2905H30.9375L28.0115 41.2705V47.2905H26.2335ZM50.2484 47.2905L53.3284 37.2105H56.1704L59.2504 47.2905H57.2904L54.5464 38.4005H54.9104L52.2084 47.2905H50.2484ZM52.0964 45.1905V43.4125H57.4164V45.1905H52.0964ZM76.7096 47.5005C75.963 47.5005 75.2886 47.3699 74.6866 47.1085C74.0893 46.8425 73.597 46.4645 73.2096 45.9745C72.827 45.4799 72.5843 44.8919 72.4816 44.2105L74.4696 43.9165C74.6096 44.4952 74.899 44.9409 75.3376 45.2535C75.7763 45.5662 76.2756 45.7225 76.8356 45.7225C77.1483 45.7225 77.4516 45.6735 77.7456 45.5755C78.0396 45.4775 78.28 45.3329 78.4666 45.1415C78.658 44.9502 78.7536 44.7145 78.7536 44.4345C78.7536 44.3319 78.7373 44.2339 78.7046 44.1405C78.6766 44.0425 78.6276 43.9515 78.5576 43.8675C78.4876 43.7835 78.3873 43.7042 78.2566 43.6295C78.1306 43.5549 77.9696 43.4872 77.7736 43.4265L75.1556 42.6565C74.9596 42.6005 74.731 42.5212 74.4696 42.4185C74.213 42.3159 73.9633 42.1689 73.7206 41.9775C73.478 41.7862 73.275 41.5342 73.1116 41.2215C72.953 40.9042 72.8736 40.5052 72.8736 40.0245C72.8736 39.3479 73.044 38.7855 73.3846 38.3375C73.7253 37.8895 74.1803 37.5559 74.7496 37.3365C75.319 37.1172 75.949 37.0099 76.6396 37.0145C77.335 37.0239 77.9556 37.1429 78.5016 37.3715C79.0476 37.6002 79.505 37.9339 79.8736 38.3725C80.2423 38.8065 80.5083 39.3385 80.6716 39.9685L78.6136 40.3185C78.539 39.9919 78.4013 39.7165 78.2006 39.4925C78 39.2685 77.7596 39.0982 77.4796 38.9815C77.2043 38.8649 76.915 38.8019 76.6116 38.7925C76.313 38.7832 76.0306 38.8252 75.7646 38.9185C75.5033 39.0072 75.2886 39.1379 75.1206 39.3105C74.9573 39.4832 74.8756 39.6885 74.8756 39.9265C74.8756 40.1459 74.9433 40.3255 75.0786 40.4655C75.214 40.6009 75.3843 40.7105 75.5896 40.7945C75.795 40.8785 76.005 40.9485 76.2196 41.0045L77.9696 41.4805C78.231 41.5505 78.5203 41.6439 78.8376 41.7605C79.155 41.8725 79.4583 42.0312 79.7476 42.2365C80.0416 42.4372 80.282 42.7032 80.4686 43.0345C80.66 43.3659 80.7556 43.7859 80.7556 44.2945C80.7556 44.8359 80.6413 45.3095 80.4126 45.7155C80.1886 46.1169 79.8853 46.4505 79.5026 46.7165C79.12 46.9779 78.686 47.1739 78.2006 47.3045C77.72 47.4352 77.223 47.5005 76.7096 47.5005ZM97.3022 47.2905V38.9885H94.1242V37.2105H102.384V38.9885H99.2062V47.2905H97.3022ZM116.179 47.2905V37.2105H122.759V38.9885H118.083V41.1445H121.919V42.9225H118.083V45.5125H122.759V47.2905H116.179ZM137.107 47.2905V37.2105H141.363C141.461 37.2105 141.592 37.2152 141.755 37.2245C141.923 37.2292 142.072 37.2432 142.203 37.2665C142.805 37.3599 143.297 37.5582 143.68 37.8615C144.067 38.1649 144.352 38.5475 144.534 39.0095C144.716 39.4669 144.807 39.9779 144.807 40.5425C144.807 41.3872 144.597 42.1105 144.177 42.7125C143.757 43.3099 143.099 43.6785 142.203 43.8185L141.363 43.8745H139.011V47.2905H137.107ZM142.791 47.2905L140.803 43.1885L142.763 42.8105L144.947 47.2905H142.791ZM139.011 42.0965H141.279C141.377 42.0965 141.484 42.0919 141.601 42.0825C141.718 42.0732 141.825 42.0545 141.923 42.0265C142.18 41.9565 142.378 41.8399 142.518 41.6765C142.658 41.5085 142.754 41.3242 142.805 41.1235C142.861 40.9182 142.889 40.7245 142.889 40.5425C142.889 40.3605 142.861 40.1692 142.805 39.9685C142.754 39.7632 142.658 39.5789 142.518 39.4155C142.378 39.2475 142.18 39.1285 141.923 39.0585C141.825 39.0305 141.718 39.0119 141.601 39.0025C141.484 38.9932 141.377 38.9885 141.279 38.9885H139.011V42.0965Z" fill="white"/>
</svg>
