<svg width="22" height="22" viewBox="0 0 22 22" fill="none" xmlns="http://www.w3.org/2000/svg">
<path d="M11 0C4.95 0 0 4.95 0 11C0 17.05 4.95 22 11 22C17.05 22 22 17.05 22 11C22 4.95 17.105 0 11 0ZM15.125 16.115C12.54 14.52 9.295 14.19 5.445 15.07C5.06 15.18 4.73 14.905 4.62 14.575C4.51 14.19 4.785 13.86 5.115 13.75C9.295 12.815 12.925 13.2 15.785 14.96C16.17 15.125 16.225 15.565 16.06 15.895C15.84 16.225 15.455 16.335 15.125 16.115ZM16.225 13.145C13.255 11.33 8.745 10.78 5.28 11.88C4.84 11.99 4.345 11.77 4.235 11.33C4.125 10.89 4.345 10.395 4.785 10.285C8.8 9.075 13.75 9.68 17.16 11.77C17.49 11.935 17.655 12.485 17.38 12.87C17.105 13.255 16.61 13.42 16.225 13.145ZM4.73 8.525C4.18 8.69 3.63 8.36 3.465 7.865C3.3 7.315 3.63 6.765 4.125 6.6C8.03 5.445 14.465 5.665 18.535 8.085C19.03 8.36 19.195 9.02 18.92 9.515C18.645 9.9 17.985 10.065 17.49 9.79C13.97 7.7 8.085 7.48 4.73 8.525Z" fill="white"/>
</svg>
