<svg width="50" height="50" viewBox="0 0 50 50" fill="none" xmlns="http://www.w3.org/2000/svg">
<path d="M25 50C11.1925 50 0 38.8075 0 25C0 11.1925 11.1925 0 25 0C38.8075 0 50 11.1925 50 25C50 38.8075 38.8075 50 25 50ZM21.555 16.0375C21.4045 15.9371 21.2297 15.8794 21.049 15.8706C20.8684 15.8617 20.6887 15.902 20.5291 15.9872C20.3695 16.0723 20.2361 16.1992 20.1429 16.3542C20.0497 16.5092 20.0003 16.6866 20 16.8675V33.1325C20.0003 33.3134 20.0497 33.4908 20.1429 33.6458C20.2361 33.8008 20.3695 33.9277 20.5291 34.0128C20.6887 34.098 20.8684 34.1383 21.049 34.1294C21.2297 34.1206 21.4045 34.0629 21.555 33.9625L33.7525 25.8325C33.8897 25.7412 34.0022 25.6175 34.08 25.4722C34.1578 25.327 34.1985 25.1648 34.1985 25C34.1985 24.8352 34.1578 24.673 34.08 24.5278C34.0022 24.3825 33.8897 24.2588 33.7525 24.1675L21.5525 16.0375H21.555Z" fill="white"/>
</svg>
